<?xml version="1.0" encoding="utf-8"?>
<!-- Generator: Adobe Illustrator 26.0.3, SVG Export Plug-In . SVG Version: 6.00 Build 0)  -->
<svg version="1.1" id="Layer_1" xmlns="http://www.w3.org/2000/svg" xmlns:xlink="http://www.w3.org/1999/xlink" x="0px" y="0px"
	 viewBox="0 0 1058 580" style="enable-background:new 0 0 1058 580;" xml:space="preserve">
<style type="text/css">
	.st0{fill:url(#SVGID_1_);}
	.st1{fill:#FAA939;}
	.st2{fill:url(#SVGID_00000125562669872700876020000007941664528145077679_);}
	.st3{fill:url(#SVGID_00000110439727645855622860000016521299073609658041_);}
	.st4{fill:url(#SVGID_00000129927777529489794960000018280096302639640738_);}
	.st5{fill:url(#SVGID_00000152965564387949996710000008045829697636603026_);}
	.st6{opacity:0.5;fill:#FFFFFF;}
	.st7{fill:url(#SVGID_00000127729008215947257770000016245098684778653068_);}
	.st8{fill:#E7E7E7;}
	.st9{fill:url(#SVGID_00000031194128047609539190000006527414646123800452_);}
</style>
<linearGradient id="SVGID_1_" gradientUnits="userSpaceOnUse" x1="529.451" y1="577.8392" x2="529.451" y2="-9.094947e-13">
	<stop  offset="0" style="stop-color:#E2F3F8"/>
	<stop  offset="0.1732" style="stop-color:#DEF2F7"/>
	<stop  offset="0.3339" style="stop-color:#D3EDF3"/>
	<stop  offset="0.4898" style="stop-color:#BFE6EE"/>
	<stop  offset="0.6426" style="stop-color:#A4DCE7"/>
	<stop  offset="0.7932" style="stop-color:#7ED0DF"/>
	<stop  offset="0.9402" style="stop-color:#44C3D5"/>
	<stop  offset="1" style="stop-color:#01BED1"/>
</linearGradient>
<rect x="0.9" class="st0" width="1057.1" height="577.84"/>
<g>
	<circle class="st1" cx="599.61" cy="242.91" r="80.98"/>
</g>
<g>
	
		<linearGradient id="SVGID_00000164514767134112636560000010688382532566028438_" gradientUnits="userSpaceOnUse" x1="127.1641" y1="336.0282" x2="1058" y2="336.0282">
		<stop  offset="0" style="stop-color:#010101"/>
		<stop  offset="1" style="stop-color:#637574"/>
	</linearGradient>
	<path style="fill:url(#SVGID_00000164514767134112636560000010688382532566028438_);" d="M404.44,189.21
		c124.72,23.51,61.85,147.72,162.86,158.71c101.01,10.99,153.58-151.85,258.72-118.54s64.94,152.39,152.55,163.88
		c51.29,6.72,79.43-92.7,79.43-92.7l-0.7,183.54H127.16C127.16,484.09,279.72,165.7,404.44,189.21z"/>
	<g>
		
			<linearGradient id="SVGID_00000119831934994836637750000001332876364296954804_" gradientUnits="userSpaceOnUse" x1="-0.7921" y1="296.2874" x2="856.5735" y2="296.2874">
			<stop  offset="0" style="stop-color:#010101"/>
			<stop  offset="1" style="stop-color:#637574"/>
		</linearGradient>
		<path style="fill:url(#SVGID_00000119831934994836637750000001332876364296954804_);" d="M1.34,203.42
			c0,0,21.76,38.29,41.97,42.91c52.57,12,138.12-140.44,243.26-99.63s53.6,205.6,141.21,219.67s107.26-130.33,236.11-131.53
			c128.84-1.2,192.69,204.75,192.69,204.75L-0.79,452.84L1.34,203.42z"/>
		
			<linearGradient id="SVGID_00000069380254284067175330000003109114408009351072_" gradientUnits="userSpaceOnUse" x1="764.7257" y1="350.9044" x2="1051.2264" y2="350.9044">
			<stop  offset="0" style="stop-color:#010101"/>
			<stop  offset="1" style="stop-color:#637574"/>
		</linearGradient>
		<path style="fill:url(#SVGID_00000069380254284067175330000003109114408009351072_);" d="M968.43,254.15
			c108.76,14.77,79.11,194.26,79.11,194.26l-282.81-1.96C764.73,446.45,859.67,239.38,968.43,254.15z"/>
	</g>
</g>
<linearGradient id="SVGID_00000057827397084830023410000012291653761946200227_" gradientUnits="userSpaceOnUse" x1="528.6039" y1="580" x2="528.6039" y2="392.0489">
	<stop  offset="0" style="stop-color:#86D1D8"/>
	<stop  offset="1" style="stop-color:#13B1D1"/>
</linearGradient>
<rect x="-0.79" y="392.05" style="fill:url(#SVGID_00000057827397084830023410000012291653761946200227_);" width="1058.79" height="187.95"/>
<path class="st6" d="M139.74,26.98c45.57,6.84,11.53,44.59,31.83,49.85s23.09-14.1,42.55-8.49s10.57,27.06,23.99,28.52
	c13.42,1.46,20.99-13.58,33.41-8.58s1.07,23.52,22.03,33.42c20.96,9.9,82.51,11.18,82.51,11.18H255.38h-66.05H52.2h-78.7
	c0,0,32.77-47.17,64.84-29.41S94.17,20.14,139.74,26.98z"/>
<path class="st6" d="M886.26,83.72c44.5,6.68,11.26,43.54,31.09,48.68c19.83,5.14,22.55-13.77,41.55-8.29
	c19,5.47,10.32,26.43,23.43,27.85c13.1,1.42,20.5-13.26,32.63-8.38c12.13,4.88,1.04,22.97,21.51,32.64
	c20.47,9.67,80.57,10.91,80.57,10.91H999.18h-64.5h-133.9h-76.85c0,0,32.01-46.06,63.31-28.72S841.75,77.04,886.26,83.72z"/>
<linearGradient id="SVGID_00000015322513194237184530000013584744799291539388_" gradientUnits="userSpaceOnUse" x1="0" y1="495.5392" x2="1058" y2="495.5392">
	<stop  offset="0" style="stop-color:#EEAE53"/>
	<stop  offset="1" style="stop-color:#FFD495"/>
</linearGradient>
<path style="fill:url(#SVGID_00000015322513194237184530000013584744799291539388_);" d="M1058,411.08
	c-225.5,2.45-685.03,3.09-909.62,20.55C53.79,438.98,0,439.81,0,439.81L4.68,580H1058"/>
<path class="st8" d="M1058,415.9v54.06c0,0-84.51-29.03-192.5-27.95c-125.76,1.26-282.59,32.88-362.99,36.42
	c-149.43,6.59-194.84-31.97-250.7-31.65C138.18,447.45,0,486.27,0,486.27v-40.3c0,0,396.41-19.52,538.72-23.47
	C681.02,418.55,1058,415.9,1058,415.9z"/>
<linearGradient id="SVGID_00000143585517245082408120000016521725165705652902_" gradientUnits="userSpaceOnUse" x1="0" y1="532.9424" x2="1058" y2="532.9424">
	<stop  offset="0" style="stop-color:#FFD495"/>
	<stop  offset="1" style="stop-color:#EEAE53"/>
</linearGradient>
<path style="fill:url(#SVGID_00000143585517245082408120000016521725165705652902_);" d="M1058,580H4.68L0,549.76
	c0,0,247.03,18.46,390.74-1.02s239.06-60.07,362.99-62.68s253.54,24.57,304.27,33.85V580z"/>
</svg>
